Genre:Thriller
Language:English
IMDb:http://www.imdb.com/title/tt1460643/
Source:720p BluRay x264-DNL

General
Complete name :Pimp 2010 BRRip XviD Feel-Free
Format : MPEG-4
Format profile : Base Media / Version 2
Codec ID : mp42
File size : 1.19 GiB
Duration : 1h 27mn
Overall bit rate : 1 942 Kbps
Video #1
ID : 1
Format : MPEG-4 Visual
Format profile : AdvancedSimple@L5
Format settings, BVOP : No
Format settings, QPel : No
Format settings, GMC : No warppoints
Format settings, Matrix : Default (H.263)
Codec ID : 20
Duration : 1h 27mn
Bit rate mode : Constant
Bit rate : 1 460 Kbps
Nominal bit rate : 64.0 Kbps
Width : 720 pixels
Height : 304 pixels
Display aspect ratio : 2.35:1
Frame rate mode : Constant
Frame rate : 23.976 fps
Resolution : 24 bits
Colorimetry : 4:2:0
Scan type : Progressive
Bits/(Pixel*Frame) : 0.278
Stream size : 916 MiB (75%)
Audio #2
ID : 2
Format : AAC
Format/Info : Advanced Audio Codec
Format version : Version 4
Format profile : LC
Format settings, SBR : No
Codec ID : 40
Duration : 1h 27mn
Bit rate mode : Constant
Bit rate : 477 Kbps
Nominal bit rate : 480 Kbps
Channel(s) : 6 channels
Channel positions : Front: L C R, Rear: L R, LFE
Sampling rate : 48.0 KHz
Resolution : 16 bits
Stream size : 299 MiB (25%)
Plot:
A week in the life of Woody; a Soho pimp, as seen through the eyes of concealed documentary cameras: A week which spirals brutally out of control.

screens
 
http://rapidhdd.com/images/479730vlcsnap-2010-11-26-12h08m37s184.png 
http://www.rapidhdd.com/images/135128vlcsnap-2010-11-26-12h09m16s69.png 
http://www.rapidhdd.com/images/979756vlcsnap-2010-11-26-12h09m12s25.png 
http://www.rapidhdd.com/images/371815vlcsnap-2010-11-26-12h09m33s231.png 
http://www.rapidhdd.com/images/347633vlcsnap-2010-11-26-12h10m25s255.png 
http://www.rapidhdd.com/images/747152vlcsnap-2010-11-26-12h07m31s42.png